<?xml version="1.0" encoding="utf-8"?>
<!DOCTYPE svg PUBLIC "-//W3C//DTD SVG 1.1//EN" "http://www.w3.org/Graphics/SVG/1.1/DTD/svg11.dtd">
<svg xmlns="http://www.w3.org/2000/svg" xml:space="preserve" viewBox="200 150 500 300">
  <path d="m452.701 299.93 37.413-51.887-74.582.02z"/>
  <path d="m698.866 291.93-140.334-86.333h-51.347c-2.01-4.655-14.037-32.253-22.486-45.276-1.875-2.89-1.482-3.569-4.499-5.349-5.314-3.135-50.731-1.488-55.206-1.325-1.466.2-8.233 1.613-9.813 9.236-.975 4.71.154 8.875 3.667 11.667-.084-2.583.822-7.255 4.697-6.677 2.672.328 4.552 3.261 4.552 6.177 0 4.887-6.064 15.966-6.064 15.966s-3.789 8.469-7.413 15.581h-69.422L201.134 292.63l23.328 30.331 42.005-.034-13.627-18.905 5.17-3.453 15.886 22.125 35.566-.064-26.704-38.576 5.019-3.35 29.686 41.592 35.666-.031-41.095-57.75 5.353-3.573 42.813 61.092 30.202.032 3.665-4.586-50.41-74.075 5.251-3.504 55.607 77.127-59.609 81.134 40.599.134 39.105-53.398 9.335 12.947-65.777 89.088 161.69-.032-59.333-88.302 10.263-14.855 35.517 51.896 39.11-.164-56.175-78.445 53.225-77.053 4.942 3.253-49.356 74.191 3.18 4.588 29.327-.039 43.223-61.385 4.041 2.66-40.548 58.124 36.164.032 29.726-41.479 4.38 2.883-27.002 38.731 35.667.064 16.207-22.428 5.129 3.375-14.008 19.087 42.005.034.775-1.104 22.549-28.635zM455.782 164.632c2.862 0 5.185 2.321 5.185 5.185 0 2.864-2.32 5.185-5.185 5.185-2.865 0-5.188-2.321-5.188-5.185.002-2.864 2.324-5.185 5.188-5.185zm11.901 258.424L452.93 400.64l-16.932 23.647-11.764-.071 28.854-39.168 25.123 37.839-10.528.169zm-14.852-90.792-63.633-99.333 125.668-.167-62.035 99.5z"/>
  <path d="M424.832 153.651c-.318.014-.24.011.162-.004.021-.003.041-.005.061-.008-.062.004-.134.008-.223.012zm.223-.012c.312-.02.276-.035 0 0z"/>
</svg>
