<svg width="99" height="87" viewBox="0 0 99 87" fill="none" xmlns="http://www.w3.org/2000/svg">
<path d="M89.7188 43.5H74.25V31.0714C74.25 24.2163 79.7994 18.6429 86.625 18.6429H88.1719C90.7436 18.6429 92.8125 16.565 92.8125 13.9821V4.66071C92.8125 2.0779 90.7436 0 88.1719 0H86.625C69.532 0 55.6875 13.9045 55.6875 31.0714V77.6786C55.6875 82.8248 59.8447 87 64.9688 87H89.7188C94.8428 87 99 82.8248 99 77.6786V52.8214C99 47.6752 94.8428 43.5 89.7188 43.5ZM34.0312 43.5H18.5625V31.0714C18.5625 24.2163 24.1119 18.6429 30.9375 18.6429H32.4844C35.0561 18.6429 37.125 16.565 37.125 13.9821V4.66071C37.125 2.0779 35.0561 0 32.4844 0H30.9375C13.8445 0 0 13.9045 0 31.0714V77.6786C0 82.8248 4.15723 87 9.28125 87H34.0312C39.1553 87 43.3125 82.8248 43.3125 77.6786V52.8214C43.3125 47.6752 39.1553 43.5 34.0312 43.5Z" fill="#E0A4D7" fill-opacity="0.5"/>
</svg>
